<svg xmlns="http://www.w3.org/2000/svg" xmlns:xlink="http://www.w3.org/1999/xlink" width="200" zoomAndPan="magnify" viewBox="0 0 150 149.999998" height="200" preserveAspectRatio="xMidYMid meet" version="1.0"><path fill="#545454" d="M 67.917969 44.941406 C 49.40625 54.457031 25.082031 73.550781 32.917969 96.371094 C 34.941406 103.820312 39.460938 110.765625 48.308594 109.023438 C 63.488281 104.714844 79.679688 102.296875 92.457031 92.285156 C 103.941406 84.90625 118.261719 76.6875 119.179688 61.5 C 117.914062 48.703125 120.574219 44.921875 107.015625 39.132812 C 97.074219 30.105469 81.214844 39.507812 70.195312 42.824219 C 79.132812 32.574219 103.589844 27.804688 114.300781 37.121094 C 129.765625 47.871094 124.480469 71.582031 115.316406 84.765625 C 109.246094 91.402344 99.480469 92.964844 91.890625 97.785156 C 81.011719 107.132812 67.828125 112.277344 53.429688 113.535156 C 29.210938 119.628906 22.507812 96.886719 27.058594 77.527344 C 33.84375 61.398438 52.777344 47.574219 68.722656 44.292969 " fill-opacity="1" fill-rule="nonzero"/><path fill="#545454" d="M 124.089844 50.4375 C 122.140625 42.597656 115.234375 36.457031 108.246094 32.921875 C 100.261719 30.835938 91.511719 32.765625 83.53125 34.253906 C 78.613281 35.582031 72.152344 38.613281 70.195312 42.890625 C 72.765625 42.574219 76.152344 40.457031 79.089844 39.777344 C 86.214844 37.722656 93.734375 35.304688 101.195312 35.730469 C 104.410156 36.292969 106.171875 39.410156 109.019531 40.714844 C 114.765625 42.972656 119.664062 47.125 117.988281 53.902344 C 118.324219 59.578125 119.550781 65.382812 116.042969 70.464844 C 112.015625 79.972656 103.066406 84.945312 94.808594 90.316406 C 86.066406 96.5 76.707031 102.074219 65.976562 103.792969 C 56.195312 105.507812 40.878906 115 35.304688 101.824219 C 33.691406 96.445312 29.375 91.742188 31.863281 85.914062 C 34.695312 66.164062 51.53125 53.832031 68.003906 45.097656 C 67.210938 45.535156 67.367188 45.429688 68.023438 45.050781 C 67.242188 45.355469 63.183594 47.816406 65.992188 46.109375 C 66.59375 45.636719 67.738281 45.367188 68.074219 44.820312 C 67.238281 45.085938 66.347656 45.796875 65.488281 46.214844 C 66.199219 45.710938 67.488281 45.214844 67.933594 44.746094 C 65.660156 46.089844 65.417969 46.148438 67.875 44.761719 C 49.316406 54.121094 29.625 70.082031 31.019531 92.902344 C 35.546875 104.464844 38.503906 112.789062 53.078125 108.207031 C 62.175781 105 72.050781 104.15625 80.761719 99.898438 C 94.945312 90.75 113.292969 83.273438 118.867188 66.015625 C 120.484375 61.320312 118.324219 56.5 118.808594 51.699219 C 119.445312 46.214844 115.078125 42.65625 110.445312 40.800781 C 107.125 39.519531 105.070312 36.0625 101.558594 35.277344 C 94.164062 34.617188 86.710938 37.097656 79.636719 39.046875 C 75.175781 40.371094 68.199219 43.753906 75.519531 38.578125 C 83.683594 33.367188 93.78125 33.121094 103.171875 32.761719 C 111.832031 33.042969 119.03125 40.785156 122.476562 48.210938 C 125.328125 58.324219 122.167969 69.695312 118.585938 79.273438 C 113.472656 90.980469 99.273438 91.929688 89.96875 98.773438 C 76.382812 110.34375 57.292969 115.109375 39.726562 113.261719 C 24.300781 109.753906 25.148438 88.699219 27.808594 76.484375 C 35.179688 61.078125 53.523438 48.027344 68.640625 44.644531 C 70.136719 42.230469 65.132812 44.554688 64.019531 44.90625 C 44.3125 52.890625 21.652344 69.617188 26.027344 93.554688 C 25.394531 122.851562 60.304688 114.925781 77.953125 107.398438 C 83.671875 104.839844 88.113281 100.28125 93.476562 97.144531 C 99.285156 93.8125 105.917969 92.105469 111.480469 88.320312 C 122.601562 80.078125 125.027344 63.414062 124.089844 50.4375 Z M 124.089844 50.4375 " fill-opacity="1" fill-rule="nonzero"/><path fill="#000000" d="M 122.023438 52.675781 C 121.546875 49.816406 120.765625 47.738281 120.050781 46.894531 C 119.214844 50.121094 119.347656 55.132812 119.617188 58.53125 C 120.5625 57.90625 120.140625 53.683594 120.417969 56.578125 C 121.070312 63.328125 121.320312 52.839844 120.902344 50.957031 C 122.585938 55.15625 120.824219 62.15625 120.929688 64.957031 C 122.734375 62.507812 122.429688 56.378906 122.023438 52.675781 Z M 122.023438 52.675781 " fill-opacity="1" fill-rule="nonzero"/><path fill="#000000" d="M 118.695312 70.914062 C 118.710938 70.722656 118.757812 69.8125 118.652344 70.128906 C 118.636719 69.941406 118.523438 69.839844 118.542969 70.105469 C 118.476562 69.976562 118.429688 69.863281 118.386719 70.132812 C 118.476562 72.953125 114.691406 78.660156 114.09375 80.722656 C 115.84375 79.804688 118.359375 73.890625 118.695312 70.914062 Z M 118.695312 70.914062 " fill-opacity="1" fill-rule="nonzero"/><path fill="#000000" d="M 118.460938 74.839844 C 118.613281 74.492188 118.253906 74.898438 118.324219 74.464844 C 118.140625 74.523438 118.285156 74.828125 117.847656 74.777344 C 117.542969 76.222656 116.054688 77.847656 116 78.96875 C 116.515625 79.878906 118.679688 75.765625 118.460938 74.839844 Z M 118.460938 74.839844 " fill-opacity="1" fill-rule="nonzero"/><path fill="#000000" d="M 113.339844 41.042969 C 111.113281 39.917969 107.402344 36.351562 105.863281 35.476562 C 106.609375 37.492188 112.160156 41.800781 113.339844 41.042969 Z M 113.339844 41.042969 " fill-opacity="1" fill-rule="nonzero"/><path fill="#000000" d="M 112.851562 39.167969 C 112.5 38.875 109.382812 36.71875 108.988281 37.082031 C 109.414062 37.996094 113.394531 40.121094 112.851562 39.167969 Z M 112.851562 39.167969 " fill-opacity="1" fill-rule="nonzero"/><path fill="#000000" d="M 102.605469 88.570312 C 97.980469 88.832031 90.792969 93.546875 89.449219 97.34375 C 91.003906 96.601562 93.28125 93.4375 95.507812 92.351562 C 97.433594 90.578125 101.382812 90.175781 102.605469 88.570312 Z M 102.605469 88.570312 " fill-opacity="1" fill-rule="nonzero"/><path fill="#000000" d="M 101.269531 89.734375 C 100.804688 88.582031 94.125 92.625 94.816406 93.332031 C 96.734375 91.996094 99.925781 90.804688 101.269531 89.734375 Z M 101.269531 89.734375 " fill-opacity="1" fill-rule="nonzero"/><path fill="#000000" d="M 110.960938 83.777344 C 110.859375 83.695312 110.914062 83.554688 110.796875 83.75 C 110.855469 83.496094 110.613281 83.566406 110.589844 83.808594 C 109.042969 85.828125 106.183594 88.015625 104.375 89.148438 C 106.0625 90.140625 110.464844 85.777344 110.960938 83.777344 Z M 110.960938 83.777344 " fill-opacity="1" fill-rule="nonzero"/><path fill="#000000" d="M 31.34375 74.75 C 31.289062 74.734375 31.386719 74.640625 31.253906 74.695312 C 31.234375 74.628906 31.195312 74.527344 31.148438 74.667969 C 30.601562 74.511719 31.527344 73.644531 31.304688 73.238281 C 29.78125 72.777344 28.972656 77.203125 28.28125 79.070312 C 27.875 80.152344 26.335938 87.886719 28.09375 84.765625 C 27.707031 87.679688 27.230469 90.8125 27.726562 93.65625 C 28.667969 92.011719 28.257812 87.105469 28.90625 84.25 C 28.984375 81.054688 31.0625 77.394531 31.34375 74.75 Z M 31.34375 74.75 " fill-opacity="1" fill-rule="nonzero"/><path fill="#000000" d="M 34.367188 106.253906 C 32.769531 103.699219 30.816406 101.265625 30.039062 98.269531 C 29.808594 97.527344 29.371094 95.574219 29.097656 96.042969 C 27.703125 97.574219 32.828125 107.410156 34.367188 106.253906 Z M 34.367188 106.253906 " fill-opacity="1" fill-rule="nonzero"/><path fill="#000000" d="M 32.710938 106.339844 C 33.03125 106.246094 31.621094 104.898438 31.121094 104.269531 C 30.757812 104.011719 30.234375 102.664062 30.0625 102.992188 C 29.390625 103.265625 30.785156 104.714844 31.121094 105.382812 C 31.75 106.25 32.949219 106.730469 32.710938 106.339844 Z M 32.710938 106.339844 " fill-opacity="1" fill-rule="nonzero"/><path fill="#000000" d="M 74.054688 103.804688 C 68.183594 107.03125 60.34375 109.417969 54.8125 111.492188 C 55.265625 113.3125 61.292969 111.472656 63.65625 110.863281 C 64.332031 110.863281 64.777344 110.476562 65.089844 110.101562 C 65.167969 109.976562 64.917969 109.984375 64.953125 109.863281 C 64.617188 109.320312 58.738281 111.046875 60.425781 110.484375 C 64.601562 108.746094 71.652344 106.660156 74.054688 103.804688 Z M 74.054688 103.804688 " fill-opacity="1" fill-rule="nonzero"/><path fill="#000000" d="M 77.320312 105.105469 C 76.878906 104.796875 73.675781 106.570312 72.328125 107.734375 C 72.730469 107.921875 72.722656 107.832031 72.796875 108.292969 C 74.273438 107.363281 76.996094 105.960938 77.320312 105.105469 Z M 77.320312 105.105469 " fill-opacity="1" fill-rule="nonzero"/><path fill="#000000" d="M 60.273438 48.125 C 58.246094 48.320312 45.980469 55.117188 47 57.121094 C 50.585938 54.246094 56.566406 50.757812 60.273438 48.125 Z M 60.273438 48.125 " fill-opacity="1" fill-rule="nonzero"/><path fill="#000000" d="M 90.449219 35.035156 C 89.011719 34.625 82.015625 35.542969 82.058594 37.347656 C 83.394531 37.273438 86.097656 35.671875 88.089844 35.703125 C 88.878906 35.554688 90.507812 35.683594 90.449219 35.035156 Z M 90.449219 35.035156 " fill-opacity="1" fill-rule="nonzero"/><path fill="#000000" d="M 92.488281 35.050781 C 91.535156 34.9375 85.234375 35.335938 85.792969 36.71875 C 87.742188 35.855469 91.800781 35.992188 92.488281 35.050781 Z M 92.488281 35.050781 " fill-opacity="1" fill-rule="nonzero"/><path fill="#000000" d="M 61.890625 57.117188 C 64.554688 52.335938 70.878906 52.566406 75.449219 50.851562 C 79.46875 49.3125 82.742188 46.105469 86.871094 44.882812 C 103.199219 41.117188 118.421875 54.949219 104.789062 69.570312 C 96.136719 78.167969 85.929688 87.722656 74.550781 92.269531 C 65.214844 92.074219 45.546875 103.996094 42.605469 90.214844 C 42.839844 77.75 52.800781 67.902344 60.570312 58.933594 C 50.417969 59.746094 36.019531 82.566406 38.652344 93.246094 C 40.808594 106.730469 57.078125 99.847656 66.214844 99.421875 C 72.875 99.375 77.503906 95.070312 82.535156 91.394531 C 96.082031 87.105469 105.617188 75.230469 113.824219 64.183594 C 116.828125 54.570312 110.195312 40.480469 99.042969 40.382812 C 88.519531 39.453125 65.710938 47.113281 61.433594 56.867188 " fill-opacity="1" fill-rule="nonzero"/><path fill="#000000" d="M 114.84375 57.308594 C 112.367188 37.464844 93.660156 37.09375 78.828125 44.203125 C 73.453125 47.59375 62.660156 49.886719 61.261719 56.65625 C 61.253906 56.882812 61.359375 57.011719 61.472656 56.976562 C 61.515625 56.855469 61.84375 56.867188 61.742188 57.039062 C 61.804688 56.964844 61.671875 57.234375 61.765625 57.132812 C 61.960938 57.148438 61.722656 57.316406 61.882812 57.308594 C 62.632812 56.046875 64.703125 54.074219 66.683594 53.515625 C 69.8125 52.359375 73.230469 52.214844 76.296875 50.84375 C 80.242188 49.113281 83.519531 45.929688 87.808594 45.003906 C 95.042969 44 104.550781 45.566406 108.515625 52.378906 C 114.609375 68.964844 88.242188 83.074219 77.054688 91.277344 C 67.410156 93.074219 57.558594 96.433594 47.769531 96.351562 C 34.933594 89.183594 50.695312 71.367188 56.574219 63.914062 C 73.359375 45.25 28.632812 75.703125 39.863281 97.273438 C 44.113281 104.753906 54.089844 100.808594 60.917969 100.371094 C 66.160156 99.53125 71.863281 100.019531 76.226562 96.460938 C 83.777344 89.546875 94.9375 88.5625 100.917969 79.601562 C 106.375 72.96875 116.441406 67.125 114.84375 57.308594 Z M 65.410156 53.660156 C 65.160156 53.785156 65.402344 53.660156 65.5 53.613281 C 65.5 53.613281 65.410156 53.660156 65.410156 53.660156 Z M 61.898438 56.546875 C 63.027344 51.789062 69.007812 50.476562 72.625 47.976562 C 82.996094 42.519531 97.757812 36.289062 108.171875 44.371094 C 113.878906 50.578125 116.925781 61.910156 110.5625 68.527344 C 104.679688 74.566406 99.441406 81.390625 92.636719 86.433594 C 89.660156 88.566406 86.046875 89.394531 82.8125 91.023438 C 78.226562 93.660156 74.664062 98.273438 69.011719 98.628906 C 60.507812 99.015625 50.90625 103.285156 42.867188 99.636719 C 34.316406 92.246094 40.515625 78.792969 46.257812 71.441406 C 49.8125 67.4375 55.082031 59.128906 59.902344 59.300781 C 51.359375 66.492188 28.621094 99.261719 53.691406 96.621094 C 62.507812 94.207031 72.542969 94.507812 80.601562 90.101562 C 93.65625 80.90625 129.164062 55.347656 98.402344 45.019531 C 89.742188 41.859375 82.382812 46.582031 75.132812 50.675781 C 70.683594 52.160156 64.441406 52.683594 61.898438 56.546875 Z M 40.828125 98.601562 C 40.835938 98.613281 40.84375 98.625 40.851562 98.632812 C 40.84375 98.625 40.835938 98.613281 40.828125 98.601562 Z M 40.960938 98.761719 C 41.09375 98.921875 41.242188 99.070312 41.386719 99.21875 C 41.238281 99.074219 41.09375 98.921875 40.960938 98.761719 Z M 40.960938 98.761719 " fill-opacity="1" fill-rule="nonzero"/><path fill="#545454" d="M 96.953125 78.816406 C 96.773438 78.753906 96.558594 78.765625 96.316406 78.691406 C 93.140625 81.953125 89.371094 84.414062 85.6875 87.152344 C 88.390625 87.402344 95.347656 81.605469 96.953125 78.816406 Z M 96.953125 78.816406 " fill-opacity="1" fill-rule="nonzero"/><path fill="#545454" d="M 92.78125 85.058594 C 92.074219 84.417969 90.082031 86.402344 88.972656 86.988281 C 89.421875 87.820312 92.597656 86.066406 92.78125 85.058594 Z M 92.78125 85.058594 " fill-opacity="1" fill-rule="nonzero"/><path fill="#545454" d="M 46.164062 98.65625 C 45.777344 97.214844 43.027344 95.835938 42.558594 93.730469 C 42.34375 93.417969 42.152344 92.910156 42.078125 93.515625 C 40.964844 93.546875 43 94.917969 42.039062 95.0625 C 40.613281 93.90625 41.023438 90.738281 40.25 90.605469 C 37.429688 96.316406 46.691406 102.839844 43.0625 98.5 C 41.152344 96.328125 40.113281 94.339844 42.976562 97.359375 C 43.417969 98.191406 45.109375 99.300781 45.5 98.632812 C 45.746094 98.527344 45.988281 98.976562 46.164062 98.65625 Z M 46.164062 98.65625 " fill-opacity="1" fill-rule="nonzero"/><path fill="#545454" d="M 70.886719 94.640625 C 71.121094 93.140625 65.078125 95.636719 65.671875 96.277344 C 63.816406 98.027344 56.847656 97.5 54.226562 98.800781 C 58.800781 99.253906 65.007812 97.71875 69.988281 96.640625 C 70.050781 96.34375 70.351562 96.226562 70.3125 96.042969 C 69.523438 94.894531 70.800781 95.867188 70.886719 94.640625 Z M 70.886719 94.640625 " fill-opacity="1" fill-rule="nonzero"/><path fill="#545454" d="M 52.925781 65.363281 C 51.75 64.871094 41.53125 76.460938 43.191406 79.132812 C 43.777344 75.714844 49.214844 69.777344 52.925781 65.363281 Z M 52.925781 65.363281 " fill-opacity="1" fill-rule="nonzero"/><path fill="#545454" d="M 43.875 79.386719 C 42.476562 78.832031 41.054688 84.96875 41.445312 85.894531 C 42.117188 84.90625 42.964844 81.015625 43.875 79.386719 Z M 43.875 79.386719 " fill-opacity="1" fill-rule="nonzero"/><path fill="#545454" d="M 112.386719 60.382812 C 112.101562 60.042969 112.824219 57.480469 112.113281 56.953125 C 111.785156 57.078125 111.203125 58.863281 111.824219 57.53125 C 111.6875 57.945312 111.457031 58.152344 111.652344 58.285156 C 112 61.414062 108.757812 64.949219 107.707031 67.597656 C 110.546875 66.738281 102.546875 73.59375 101.941406 75.230469 C 105.820312 72.632812 112.371094 65.125 112.386719 60.382812 Z M 112.226562 57.300781 C 112.222656 57.273438 112.222656 57.246094 112.226562 57.21875 C 112.226562 57.25 112.230469 57.277344 112.226562 57.300781 Z M 112.226562 57.300781 " fill-opacity="1" fill-rule="nonzero"/><path fill="#545454" d="M 107.550781 46.511719 C 105.523438 43.199219 100.398438 41.234375 98.550781 41.507812 C 98.738281 41.871094 99.1875 42.167969 99.359375 41.976562 C 99.757812 41.867188 105.574219 44.433594 103.558594 43.84375 C 102.828125 43.621094 102.074219 43.570312 101.734375 44.027344 C 103.753906 44.015625 106.789062 47.753906 107.550781 46.511719 Z M 98.867188 41.5 C 98.878906 41.519531 98.859375 41.496094 98.867188 41.5 Z M 98.78125 41.714844 C 98.769531 41.714844 98.703125 41.664062 98.714844 41.667969 C 98.714844 41.667969 98.78125 41.714844 98.78125 41.714844 Z M 98.757812 41.460938 C 98.792969 41.460938 98.828125 41.496094 98.859375 41.511719 C 98.820312 41.503906 98.789062 41.484375 98.757812 41.457031 C 98.757812 41.457031 98.757812 41.460938 98.757812 41.460938 Z M 98.914062 41.804688 C 98.914062 41.804688 98.875 41.777344 98.875 41.777344 C 98.890625 41.789062 98.902344 41.796875 98.914062 41.804688 Z M 99.234375 41.878906 C 99.222656 41.871094 99.25 41.878906 99.253906 41.878906 C 99.273438 41.886719 99.246094 41.878906 99.238281 41.878906 C 99.238281 41.878906 99.234375 41.878906 99.234375 41.878906 Z M 99.355469 41.90625 C 99.398438 41.882812 99.515625 41.929688 99.570312 41.953125 C 99.570312 41.953125 99.355469 41.90625 99.355469 41.90625 Z M 99.355469 41.90625 " fill-opacity="1" fill-rule="nonzero"/><path fill="#545454" d="M 100.820312 43.78125 C 101.023438 43.414062 99.261719 42.933594 98.316406 42.894531 C 98.253906 43.253906 98.148438 43.230469 97.839844 43.300781 C 98.164062 43.324219 98.230469 43.492188 98.242188 43.769531 C 99.136719 43.746094 100.988281 44.15625 100.820312 43.78125 Z M 100.820312 43.78125 " fill-opacity="1" fill-rule="nonzero"/><path fill="#545454" d="M 82.007812 45.535156 C 79.859375 46.132812 76.082031 47.980469 73.035156 48.105469 C 71.128906 49.984375 82.796875 47.246094 82.007812 45.535156 Z M 82.007812 45.535156 " fill-opacity="1" fill-rule="nonzero"/><path fill="#545454" d="M 78.503906 48.273438 C 78.554688 47.785156 76.046875 48.597656 75.394531 49.253906 C 75.949219 49.929688 78.097656 48.667969 78.503906 48.273438 Z M 78.503906 48.273438 " fill-opacity="1" fill-rule="nonzero"/><path fill="#545454" d="M 94.175781 42.25 C 92.472656 41.765625 86.75 41.96875 86.894531 43.394531 C 87.582031 43.832031 89.519531 42.605469 90.691406 42.777344 C 91.773438 42.492188 94.109375 43.082031 94.175781 42.25 Z M 94.175781 42.25 " fill-opacity="1" fill-rule="nonzero"/><path fill="#545454" d="M 53.5 78.648438 C 55.28125 67.433594 88.679688 47.695312 95.089844 61.691406 C 95.074219 67.441406 88.101562 70.667969 84.671875 74.652344 C 77.414062 82.007812 65.960938 88.433594 55.5625 84.558594 C 53.863281 83.421875 53.089844 81.078125 53.78125 79.152344 C 50.546875 83.554688 54.390625 90.199219 59.828125 89.574219 C 63.546875 88.433594 67.285156 88.25 71.148438 88.117188 C 81.644531 84.921875 89.398438 76.300781 97.519531 69.371094 C 109.222656 53.648438 85.503906 47.484375 75.171875 56.613281 C 70.679688 58.742188 65.570312 59.6875 61.578125 62.65625 C 59.261719 63.371094 44.390625 83.136719 53.023438 78.40625 " fill-opacity="1" fill-rule="nonzero"/><path fill="#545454" d="M 100.527344 58.835938 C 93.390625 46.296875 80.730469 53.589844 71.03125 57.984375 C 64.144531 59.648438 58.367188 63.796875 54.738281 69.902344 C 53.367188 72.722656 49.050781 75.3125 50.445312 78.75 C 51.960938 81.070312 53.757812 77.816406 53.644531 78.695312 C 54.53125 72.828125 60.597656 69.21875 64.875 65.546875 C 79.546875 53.480469 111.226562 53.265625 83.746094 75.191406 C 78.660156 81.699219 54.152344 92.78125 53.882812 79.105469 C 50.773438 81.25 52.925781 89.285156 58.003906 89.675781 C 60.25 90.160156 62.34375 88.960938 64.523438 88.660156 C 67.855469 88.601562 71.3125 89.128906 74.359375 87.441406 C 80.699219 85.105469 85.367188 80.414062 90.355469 76.105469 C 95.800781 72.207031 102.960938 66.375 100.527344 58.835938 Z M 54.820312 74.679688 C 55.0625 74.300781 55.320312 73.933594 55.589844 73.578125 C 55.359375 73.832031 54.40625 75.355469 54.820312 74.679688 Z M 86.128906 56.894531 C 91.566406 56.289062 79.453125 57.671875 77.246094 58.820312 C 80.140625 57.894531 83.113281 57.246094 86.128906 56.894531 Z M 53.523438 80.933594 C 53.523438 80.933594 53.523438 80.910156 53.523438 80.910156 C 53.523438 80.921875 53.523438 80.960938 53.523438 80.933594 Z M 91.8125 57.574219 C 91.378906 57.394531 90.933594 57.246094 90.476562 57.132812 C 90.933594 57.238281 91.382812 57.386719 91.8125 57.574219 Z M 56.210938 72.8125 C 56.0625 72.945312 57.019531 71.890625 57.289062 71.632812 C 56.914062 72.015625 56.554688 72.410156 56.210938 72.8125 Z M 53.214844 79.976562 C 53.761719 78.894531 52.839844 80.730469 52.769531 81.210938 C 52.855469 80.78125 53.003906 80.363281 53.214844 79.976562 Z M 55.066406 84.335938 C 55.691406 84.835938 56.40625 85.210938 57.171875 85.441406 C 56.535156 85.402344 54.894531 84.308594 55.066406 84.335938 Z M 95.226562 62.628906 C 95.308594 61.472656 94.96875 60.320312 94.273438 59.390625 C 95.046875 60.175781 95.445312 62.027344 95.226562 62.628906 Z M 91.210938 57.261719 C 90.820312 57.121094 90.414062 57.007812 90.003906 56.933594 C 90.347656 56.953125 91.96875 57.511719 91.210938 57.265625 C 91.210938 57.265625 91.210938 57.261719 91.210938 57.261719 Z M 89.769531 56.890625 C 89.769531 56.890625 89.902344 56.914062 89.902344 56.914062 C 89.902344 56.914062 89.769531 56.890625 89.769531 56.890625 Z M 67.136719 63.53125 C 66.949219 63.652344 67.523438 63.28125 67.628906 63.214844 C 67.464844 63.324219 67.300781 63.429688 67.136719 63.539062 C 67.136719 63.539062 67.136719 63.53125 67.136719 63.53125 Z M 67.824219 63.089844 C 67.894531 63.046875 67.964844 63 68.035156 62.960938 C 67.964844 63.011719 67.894531 63.054688 67.824219 63.097656 C 67.824219 63.097656 67.824219 63.089844 67.824219 63.089844 Z M 68.449219 62.703125 C 70.699219 61.347656 73.082031 60.222656 75.554688 59.34375 C 73.082031 60.234375 70.703125 61.359375 68.449219 62.710938 C 68.449219 62.710938 68.449219 62.703125 68.449219 62.703125 Z M 66.539062 63.933594 C 66.574219 63.910156 66.609375 63.886719 66.644531 63.863281 C 66.605469 63.890625 66.570312 63.914062 66.539062 63.9375 C 66.539062 63.9375 66.539062 63.933594 66.539062 63.933594 Z M 64.886719 65.117188 C 64.886719 65.117188 64.910156 65.097656 64.910156 65.097656 C 64.910156 65.097656 64.886719 65.117188 64.886719 65.117188 Z M 65.339844 64.777344 C 65.339844 64.777344 65.523438 64.648438 65.523438 64.648438 C 65.523438 64.648438 65.339844 64.777344 65.339844 64.777344 Z M 53.761719 77.03125 C 53.867188 76.664062 54 76.308594 54.160156 75.964844 C 54.046875 76.242188 53.78125 76.957031 53.761719 77.03125 Z M 56.527344 89.054688 C 56.542969 89.0625 56.457031 89.023438 56.4375 89.015625 C 56.4375 89.015625 56.527344 89.054688 56.527344 89.054688 Z M 53.207031 78.371094 C 53.238281 78.203125 53.28125 78.050781 53.066406 78.238281 C 53.023438 78.117188 52.914062 78.238281 52.882812 78.347656 C 52.472656 78.085938 52.628906 78.957031 52.113281 78.984375 C 47.222656 78.394531 59.253906 65.691406 60.792969 63.875 C 64.664062 60.382812 69.933594 59.351562 74.59375 57.324219 C 78.300781 55.675781 81.765625 53.210938 85.882812 52.71875 C 92.367188 51.675781 102.46875 55.789062 99.957031 63.773438 C 97.613281 71.296875 85.410156 78.929688 79.089844 84.050781 C 74.621094 87.101562 69.757812 88.257812 64.421875 88.101562 C 60.214844 89.875 54.375 89.296875 53.085938 84.296875 C 52.644531 83.335938 53.191406 80.710938 53.382812 80.59375 C 53.296875 83.851562 56.371094 85.878906 59.394531 85.808594 C 74.222656 87.121094 84.996094 75.214844 94.351562 65.429688 C 99.0625 52.824219 79.570312 57.027344 73.328125 60.214844 C 65.453125 64.097656 56.105469 70.035156 53.207031 78.371094 Z M 53.722656 79.226562 C 53.683594 79.285156 53.695312 79.261719 53.722656 79.226562 Z M 54.183594 87.4375 C 54.515625 87.789062 54.871094 88.109375 55.253906 88.402344 C 54.859375 88.125 54.5 87.804688 54.183594 87.4375 Z M 55.820312 88.777344 C 55.953125 88.859375 56.089844 88.933594 56.226562 89.003906 C 56.085938 88.9375 55.953125 88.859375 55.820312 88.777344 Z M 55.820312 88.777344 " fill-opacity="1" fill-rule="nonzero"/><path fill="#000000" d="M 96.917969 60.390625 C 96.746094 59.359375 94.535156 55.960938 94.074219 56.765625 C 93.878906 57.570312 96.421875 60 96.152344 61.789062 C 96.164062 61.847656 96.421875 61.820312 96.503906 61.800781 C 96.582031 61.808594 96.519531 62.109375 96.625 61.929688 C 96.988281 61.765625 97.074219 60.960938 96.917969 60.390625 Z M 96.917969 60.390625 " fill-opacity="1" fill-rule="nonzero"/><path fill="#000000" d="M 98.402344 63.027344 C 98.484375 62.074219 97.089844 59.53125 98.023438 60.175781 C 97.976562 60.097656 97.941406 60.011719 97.921875 59.921875 C 97.960938 60.023438 98.171875 60.296875 98.070312 60.03125 C 98.625 59.148438 96.578125 57.726562 96.109375 56.722656 C 95.65625 55.660156 94.15625 55.144531 94.785156 56.507812 C 94.402344 56.226562 93.914062 55.265625 93.621094 55.300781 C 92.984375 56.609375 96.472656 58.589844 96.789062 60.59375 C 97.003906 61.5 97.921875 64.582031 98.402344 63.027344 Z M 98.402344 63.027344 " fill-opacity="1" fill-rule="nonzero"/><path fill="#000000" d="M 95.898438 65.574219 C 95.976562 65.386719 95.902344 65.375 95.765625 65.453125 C 95.761719 65.378906 95.785156 65.089844 95.695312 65.195312 C 95.113281 65.710938 94.925781 66.691406 94.53125 67.59375 C 94.085938 68.957031 92.601562 70.152344 91.976562 71.101562 C 93.1875 72.648438 96.175781 66.789062 95.898438 65.574219 Z M 95.898438 65.574219 " fill-opacity="1" fill-rule="nonzero"/><path fill="#000000" d="M 96.855469 66.277344 C 96.984375 65.867188 94.457031 68.734375 95.019531 69.167969 C 95.441406 70.21875 97 67.101562 96.855469 66.277344 Z M 96.855469 66.277344 " fill-opacity="1" fill-rule="nonzero"/><path fill="#000000" d="M 91.453125 54.730469 C 88.425781 53.644531 82.390625 54.765625 79.605469 56.339844 C 81.007812 56.933594 83.761719 55.320312 85.714844 55.359375 C 87.398438 54.734375 90.796875 55.617188 91.453125 54.730469 Z M 91.453125 54.730469 " fill-opacity="1" fill-rule="nonzero"/><path fill="#000000" d="M 90.265625 55.433594 C 90.472656 55.015625 87.71875 55.175781 86.75 55.183594 C 86.230469 55.945312 90.285156 55.871094 90.265625 55.433594 Z M 90.265625 55.433594 " fill-opacity="1" fill-rule="nonzero"/><path fill="#000000" d="M 66.273438 62.871094 C 64.324219 63.371094 58.410156 66.425781 57.769531 70.140625 C 57.882812 70.308594 57.921875 70.386719 58.242188 70.152344 C 57.632812 67.960938 64.785156 64.128906 66.273438 62.871094 Z M 57.945312 70.21875 C 57.964844 70.21875 57.949219 70.242188 57.945312 70.21875 Z M 57.945312 70.21875 " fill-opacity="1" fill-rule="nonzero"/><path fill="#000000" d="M 64.785156 63.535156 C 64.714844 63.257812 60.855469 65.214844 60.863281 66.308594 C 61.863281 65.894531 64.726562 63.984375 64.785156 63.535156 Z M 64.785156 63.535156 " fill-opacity="1" fill-rule="nonzero"/><path fill="#000000" d="M 68.25 60.980469 C 67.457031 60.960938 61.097656 62.15625 62.113281 63.890625 C 63.707031 62.328125 67.714844 62.199219 68.25 60.980469 Z M 68.25 60.980469 " fill-opacity="1" fill-rule="nonzero"/><path fill="#000000" d="M 67.222656 61.933594 C 67.449219 61.753906 67.328125 61.710938 67.0625 61.761719 C 67.550781 61.648438 66.1875 61.710938 65.84375 61.894531 C 65.570312 62.050781 64.386719 62.742188 64.855469 62.796875 C 65.035156 62.796875 64.828125 63.027344 64.96875 63.085938 C 65.632812 62.597656 67.398438 62.175781 67.222656 61.933594 Z M 67.222656 61.933594 " fill-opacity="1" fill-rule="nonzero"/><path fill="#000000" d="M 60.082031 88.242188 C 60.285156 88.242188 60.308594 88.167969 60.078125 88.175781 C 60.441406 88.144531 60.160156 88.097656 59.9375 88.074219 C 60.507812 88.101562 59.359375 87.867188 59.125 87.746094 C 56.695312 87.210938 54.015625 84.441406 53.835938 83.964844 C 53.539062 87.234375 60.640625 89.070312 60.082031 88.242188 Z M 53.789062 84.035156 C 53.789062 84.046875 53.816406 84.082031 53.808594 84.082031 C 53.800781 84.066406 53.792969 84.050781 53.789062 84.035156 Z M 53.789062 84.035156 " fill-opacity="1" fill-rule="nonzero"/><path fill="#000000" d="M 59.484375 88.113281 C 59.882812 88.035156 59.839844 87.808594 59.523438 87.902344 C 59.695312 87.902344 57.210938 88.121094 56.722656 87.632812 C 56.296875 87.878906 57.195312 88.402344 57.824219 88.472656 C 58.746094 88.609375 60.222656 87.980469 59.484375 88.113281 Z M 59.484375 88.113281 " fill-opacity="1" fill-rule="nonzero"/><path fill="#000000" d="M 81.589844 80.578125 C 81.578125 80.316406 81.605469 80.410156 81.511719 80.488281 C 81.503906 80.21875 81.410156 80.273438 81.382812 80.507812 C 81.382812 80.125 81.316406 80.496094 81.085938 80.484375 C 78.4375 83.554688 73.585938 84.414062 70.441406 85.640625 C 73.367188 86.21875 79.980469 83.875 81.589844 80.578125 Z M 81.589844 80.578125 " fill-opacity="1" fill-rule="nonzero"/><path fill="#000000" d="M 79.964844 80.46875 C 79.890625 79.988281 76.855469 81.882812 76.390625 82.53125 C 76.738281 82.5 76.597656 82.820312 76.703125 82.957031 C 77.945312 82.347656 79.796875 81.34375 79.964844 80.46875 Z M 79.964844 80.46875 " fill-opacity="1" fill-rule="nonzero"/><path fill="#a6a6a6" d="M 72.949219 66.386719 C 68.476562 65.902344 65.683594 71.410156 66.839844 75.269531 C 67.78125 78.042969 71.011719 76.90625 73.207031 76.917969 C 82.546875 75.824219 82.539062 65.902344 71.84375 66.171875 " fill-opacity="1" fill-rule="nonzero"/><path fill="#a6a6a6" d="M 80.269531 70.191406 C 79.605469 66.726562 74.710938 66.246094 71.96875 65.9375 C 67.796875 66.359375 65.34375 71.652344 66.675781 75.582031 C 70.460938 79.886719 80.917969 76.707031 80.269531 70.191406 Z M 67.203125 71.355469 C 68.4375 67.675781 72.179688 65.730469 75.648438 67.113281 C 82.035156 68.554688 79.058594 72.671875 76.25 76.019531 C 72.339844 77.304688 64.929688 77.554688 67.203125 71.355469 Z M 67.203125 71.355469 " fill-opacity="1" fill-rule="nonzero"/><path fill="#545454" d="M 78.164062 71.238281 C 77.878906 67.324219 72.300781 67.8125 74.613281 68.75 C 77.15625 69.183594 75.347656 69.539062 75.875 70.097656 C 77.996094 71.253906 75.625 73.09375 75.800781 73.761719 C 76.273438 74.226562 77.484375 72.050781 77.523438 71.878906 C 77.722656 72.003906 78.292969 71.824219 78.164062 71.238281 Z M 78.164062 71.238281 " fill-opacity="1" fill-rule="nonzero"/><path fill="#545454" d="M 69.535156 69.703125 C 69.773438 69.363281 69.464844 69.664062 69.417969 69.542969 C 69.417969 69.464844 69.457031 69.269531 69.378906 69.277344 C 68.140625 70.003906 67.933594 72.871094 68.828125 73.597656 C 69.054688 73.238281 69.007812 72.53125 69.089844 71.9375 C 68.90625 71.1875 69.867188 70.109375 69.535156 69.703125 Z M 69.535156 69.703125 " fill-opacity="1" fill-rule="nonzero"/><path fill="#545454" d="M 69.796875 75.085938 C 69.503906 74.140625 69.71875 71.65625 69.167969 71.859375 C 67.980469 72.144531 69.472656 76.3125 69.796875 75.085938 Z M 69.796875 75.085938 " fill-opacity="1" fill-rule="nonzero"/><path fill="#a6a6a6" d="M 39.5625 66.933594 C 37.972656 66.855469 36.253906 64.625 37.640625 67.242188 C 37.910156 69.636719 35.136719 69.441406 38.398438 69.527344 C 40.582031 70.816406 39.445312 70.859375 39.003906 68.667969 C 39.550781 67.070312 40.878906 67.03125 38.554688 66.882812 " fill-opacity="1" fill-rule="nonzero"/><path fill="#a6a6a6" d="M 39.679688 68.253906 C 39.78125 67.820312 40.941406 67.265625 40.210938 66.945312 C 40.347656 66.671875 40.066406 66.710938 39.910156 66.699219 C 39.210938 66.324219 37.648438 65.964844 36.941406 65.566406 C 36.5625 66.378906 37.964844 68.527344 36.179688 69.449219 C 36.476562 69.671875 35.851562 69.835938 36.398438 69.769531 C 36.34375 69.914062 36.390625 69.910156 36.503906 69.867188 C 38.203125 68.804688 39.140625 70.585938 39.949219 71.03125 C 39.941406 70.703125 40.148438 69.160156 39.566406 68.828125 C 39.363281 68.703125 39.601562 68.402344 39.679688 68.253906 Z M 37.972656 66.992188 C 37.910156 66.535156 38.324219 66.847656 38.519531 66.953125 C 38.324219 66.898438 38.097656 67.214844 37.972656 66.992188 Z M 38.011719 68.042969 C 38.484375 66.738281 38.847656 67.019531 38.777344 68.363281 C 38.53125 69.503906 36.699219 69.050781 38.015625 68.042969 C 38.015625 68.042969 38.011719 68.042969 38.011719 68.042969 Z M 38.011719 68.042969 " fill-opacity="1" fill-rule="nonzero"/><path fill="#a6a6a6" d="M 47.925781 85.238281 C 44.550781 82.4375 47.832031 86.265625 45.816406 88.460938 C 47.53125 85.886719 48.5625 88.824219 49.683594 90.3125 C 46.613281 84.449219 52.921875 85.21875 47.101562 85.019531 " fill-opacity="1" fill-rule="nonzero"/><path fill="#a6a6a6" d="M 50.09375 90.171875 C 49.03125 88.34375 48.820312 86.875 49.941406 85.09375 C 49.84375 83.640625 48.855469 84.984375 47.984375 84.882812 C 47.179688 84.539062 46.4375 82.941406 46.023438 83.785156 C 45.480469 84.785156 46.707031 86.71875 45.644531 87.980469 C 45.757812 88.117188 45.519531 88.527344 45.773438 88.425781 C 45.753906 88.605469 45.84375 88.566406 45.921875 88.730469 C 46.441406 89.183594 46.902344 87.765625 47.191406 87.734375 C 48.351562 88.507812 48.855469 91.308594 50.09375 90.171875 Z M 46.902344 85.21875 C 46.78125 84.855469 46.746094 84.804688 47.035156 85.109375 C 46.953125 85.21875 47.003906 85.5 46.902344 85.21875 Z M 46.746094 87.011719 C 47.074219 85.882812 46.828125 85.429688 48.066406 85.601562 C 48.996094 85.867188 49.652344 84.796875 48.847656 86.128906 C 47.683594 88.917969 48.429688 86.53125 46.746094 87.011719 Z M 49.75 84.707031 C 49.75 84.707031 49.75 84.6875 49.75 84.6875 C 49.75 84.695312 49.75 84.699219 49.75 84.707031 Z M 49.75 84.707031 " fill-opacity="1" fill-rule="nonzero"/><path fill="#a6a6a6" d="M 105.980469 56.070312 C 102.144531 51.980469 106.128906 57.210938 104.222656 59.261719 C 106.023438 56.730469 106.042969 60.113281 106.734375 61.613281 C 106.222656 56.148438 110.171875 56.476562 105.441406 56.046875 " fill-opacity="1" fill-rule="nonzero"/><path fill="#a6a6a6" d="M 108.378906 56.078125 C 106.496094 54.980469 106.832031 57.3125 104.441406 53.765625 C 102.570312 54.558594 105.375 57.148438 104.03125 58.785156 C 104.121094 59.011719 103.929688 59.285156 104.207031 59.265625 C 104.152344 59.367188 104.164062 59.679688 104.253906 59.707031 C 106.1875 56.652344 105.59375 62.328125 106.734375 61.6875 C 107.855469 60.738281 106.78125 58.015625 108.378906 56.078125 Z M 106.898438 57.308594 C 106.222656 58.683594 106.640625 59.917969 105.839844 57.882812 C 105.460938 57.976562 105.574219 57.484375 105.070312 57.949219 C 105.554688 57.109375 104.113281 54.566406 105.375 55.949219 C 104.535156 57.214844 107.996094 56.128906 106.898438 57.308594 Z M 106.898438 57.308594 " fill-opacity="1" fill-rule="nonzero"/><path fill="#a6a6a6" d="M 116.46875 88.847656 C 114.488281 85.664062 115.570312 87.902344 114.882812 90.09375 C 113.132812 93 112.386719 92.4375 115.710938 91.003906 C 117.550781 93.527344 117.355469 94.125 116.863281 90.742188 C 119.152344 88.042969 119.105469 89.460938 115.945312 88.628906 " fill-opacity="1" fill-rule="nonzero"/><path fill="#a6a6a6" d="M 118.917969 88.753906 C 119.039062 88.550781 118.59375 88.582031 118.480469 88.417969 C 116.527344 89.527344 116.089844 86.691406 114.988281 86.75 C 114.796875 86.75 114.738281 86.957031 114.488281 87.144531 C 115.757812 89.828125 113.125 91.035156 112.582031 92.535156 C 114.601562 92.953125 115.941406 90.003906 116.738281 93.824219 C 117.160156 93.730469 117.230469 94.003906 117.378906 93.664062 C 118.402344 92.929688 116.589844 91.410156 117.375 90.546875 C 117.796875 90.089844 119.359375 89.300781 118.917969 88.753906 Z M 116.734375 90.527344 C 116.171875 92.160156 116.105469 89.960938 114.945312 90.929688 C 115.433594 90.148438 115.464844 87.355469 115.933594 88.65625 C 115.308594 88.703125 116.351562 88.960938 116.414062 89.214844 C 117.804688 89.390625 117.335938 89.339844 116.734375 90.527344 Z M 116.734375 90.527344 " fill-opacity="1" fill-rule="nonzero"/><path fill="#a6a6a6" d="M 90.386719 73.152344 C 87.617188 70.75 91.4375 76.0625 88.539062 76.527344 C 90.363281 74.105469 90.652344 75.949219 91.671875 77.761719 C 89.597656 73.121094 94.371094 73.574219 89.644531 73.332031 " fill-opacity="1" fill-rule="nonzero"/><path fill="#a6a6a6" d="M 91.40625 75.390625 C 91.214844 74.257812 93.191406 73.457031 91.886719 72.753906 C 90.625 73.882812 90.1875 71.789062 89.316406 72.09375 C 87.566406 73.246094 90.992188 73.46875 88.40625 76.53125 C 89.316406 77.449219 89.320312 76.035156 90.140625 75.660156 C 91.15625 78.632812 92.699219 78.714844 91.40625 75.390625 Z M 90.679688 74.792969 C 90.589844 75.121094 90.515625 75.21875 90.316406 74.890625 C 89.304688 73.554688 92.125 73.5 90.679688 74.792969 Z M 90.679688 74.792969 " fill-opacity="1" fill-rule="nonzero"/><path fill="#a6a6a6" d="M 79.792969 92.867188 C 79.21875 92.789062 78.722656 92.4375 78.253906 92.09375 C 79.761719 93.683594 76.03125 97.609375 78.546875 95.6875 C 79.519531 94.402344 80.457031 96.289062 81.21875 96.886719 C 79.0625 93.679688 83.300781 92.886719 79.589844 93.097656 " fill-opacity="1" fill-rule="nonzero"/><path fill="#a6a6a6" d="M 81.109375 94.140625 C 82.121094 92.4375 81.421875 92.464844 79.988281 92.789062 C 80.085938 92.628906 78.625 91.6875 78.371094 91.953125 C 77.304688 92.308594 78.945312 93.78125 77.132812 96.089844 C 77.066406 96.828125 78.449219 96.664062 78.839844 95.8125 C 79.734375 95.132812 80.285156 97.210938 81.132812 97.039062 C 82.226562 97.152344 80.011719 94.929688 81.109375 94.140625 Z M 79.347656 93.34375 C 80.976562 93.605469 80.363281 93.679688 80.046875 94.96875 C 80.167969 95.367188 80.492188 95.773438 79.996094 95.230469 C 79.554688 94.984375 78.828125 94.605469 78.523438 95.230469 C 79.132812 94.515625 78.613281 92.058594 79.347656 93.34375 Z M 79.347656 93.34375 " fill-opacity="1" fill-rule="nonzero"/><path fill="#a6a6a6" d="M 77.363281 35.46875 C 72.578125 32.878906 79.085938 36.714844 75.824219 38.566406 C 77.03125 36.492188 78.253906 38.332031 78.8125 39.859375 C 77.347656 35.105469 81.367188 36.554688 76.984375 35.652344 " fill-opacity="1" fill-rule="nonzero"/><path fill="#a6a6a6" d="M 79.523438 35.875 C 79.488281 35.25 78.175781 35.8125 77.59375 35.523438 C 77.359375 35.078125 75.917969 34.253906 75.269531 34.128906 C 74.667969 34.539062 75.96875 35.738281 75.882812 35.773438 C 77.265625 36.554688 75.707031 37.773438 75.730469 38.582031 C 75.792969 38.554688 75.832031 38.582031 75.890625 38.527344 C 75.636719 39.117188 76.238281 38.609375 76.472656 38.28125 C 77.71875 36.824219 78.25 40.671875 78.882812 39.953125 C 79.765625 39.304688 77.917969 37.304688 79.292969 36.546875 C 79.355469 36.339844 79.863281 35.984375 79.523438 35.875 Z M 76.890625 35.582031 C 76.070312 36.507812 79.300781 35.902344 78.164062 36.929688 C 78.363281 40.203125 75.96875 34.777344 76.890625 35.582031 Z M 76.890625 35.582031 " fill-opacity="1" fill-rule="nonzero"/><path fill="#a6a6a6" d="M 75.882812 35.773438 C 75.875 35.785156 75.925781 35.847656 75.882812 35.773438 Z M 75.882812 35.773438 " fill-opacity="1" fill-rule="nonzero"/><path fill="#a6a6a6" d="M 45.308594 44.847656 C 42.539062 42.449219 46.359375 47.765625 43.460938 48.226562 C 45.285156 45.800781 45.574219 47.644531 46.59375 49.457031 C 44.519531 44.816406 49.292969 45.273438 44.566406 45.027344 " fill-opacity="1" fill-rule="nonzero"/><path fill="#a6a6a6" d="M 46.328125 47.085938 C 46.136719 45.953125 48.113281 45.152344 46.808594 44.449219 C 45.546875 45.578125 45.109375 43.480469 44.234375 43.789062 C 42.488281 44.9375 45.910156 45.164062 43.324219 48.226562 C 44.234375 49.144531 44.242188 47.726562 45.058594 47.355469 C 46.078125 50.328125 47.621094 50.414062 46.328125 47.085938 Z M 45.601562 46.488281 C 45.511719 46.8125 45.4375 46.914062 45.238281 46.585938 C 44.226562 45.25 47.046875 45.195312 45.601562 46.488281 Z M 45.601562 46.488281 " fill-opacity="1" fill-rule="nonzero"/><path fill="#a6a6a6" d="M 37.34375 112.308594 C 33.507812 108.21875 37.492188 113.449219 35.585938 115.503906 C 37.382812 112.972656 37.402344 116.351562 38.097656 117.851562 C 37.585938 112.386719 41.53125 112.714844 36.804688 112.285156 " fill-opacity="1" fill-rule="nonzero"/><path fill="#a6a6a6" d="M 39.742188 112.316406 C 37.859375 111.21875 38.195312 113.550781 35.800781 110.003906 C 33.933594 110.800781 36.738281 113.386719 35.394531 115.027344 C 35.46875 115.171875 35.363281 115.429688 35.429688 115.480469 C 35.574219 115.503906 35.5625 115.492188 35.53125 115.632812 C 35.546875 116.390625 36.316406 115.023438 36.714844 114.875 C 37.246094 115.613281 37.359375 118.253906 38.023438 117.988281 C 39.25 117.160156 38.121094 114.265625 39.742188 112.316406 Z M 38.261719 113.546875 C 37.585938 114.921875 38.003906 116.160156 37.203125 114.125 C 36.824219 114.214844 36.9375 113.722656 36.4375 114.1875 C 36.917969 113.347656 35.476562 110.804688 36.738281 112.1875 C 35.898438 113.453125 39.359375 112.367188 38.261719 113.546875 Z M 38.261719 113.546875 " fill-opacity="1" fill-rule="nonzero"/><path fill="#a6a6a6" d="M 122.300781 37.882812 C 126.140625 41.96875 122.152344 36.738281 124.0625 34.6875 C 122.261719 37.21875 122.242188 33.835938 121.546875 32.339844 C 122.0625 37.800781 118.113281 37.472656 122.839844 37.90625 " fill-opacity="1" fill-rule="nonzero"/><path fill="#a6a6a6" d="M 124.441406 39.101562 C 124.042969 37.765625 123.414062 36.097656 124.394531 34.871094 C 124.417969 34.808594 124.03125 34.796875 124.21875 34.664062 C 124.234375 34.605469 124.164062 34.617188 124.140625 34.632812 C 124.105469 34.609375 124.140625 34.53125 124.074219 34.539062 C 124.019531 33.832031 123.265625 35.195312 122.886719 35.332031 C 122.386719 34.519531 122.179688 31.425781 121.441406 32.324219 C 120.769531 33.25 121.121094 34.960938 120.726562 36.113281 C 120.269531 36.625 119.746094 38.003906 120.296875 38.128906 C 120.699219 38.632812 121.859375 37.601562 122.238281 38.316406 C 122.890625 38.691406 123.570312 40.523438 124.125 39.925781 C 124.542969 39.902344 124.644531 39.625 124.441406 39.101562 Z M 122.894531 37.976562 C 122.855469 37.894531 123.363281 37.976562 123.011719 37.808594 C 122.15625 36.738281 120.425781 37.832031 121.582031 36.117188 C 122.230469 33.351562 121.480469 36.152344 122.601562 35.941406 C 122.75 36.640625 123.046875 35.910156 123.296875 35.929688 C 122.710938 36.746094 123.984375 39.316406 122.894531 37.976562 Z M 122.894531 37.976562 " fill-opacity="1" fill-rule="nonzero"/></svg>